<?xml version="1.0" encoding="UTF-8"?><svg id="Capa_1" xmlns="http://www.w3.org/2000/svg" xmlns:xlink="http://www.w3.org/1999/xlink" viewBox="0 0 893 602.16"><defs><style>.cls-1{clip-path:url(#clippath);}.cls-2{fill:#ffca05;}.cls-3{fill:#127139;}.cls-4,.cls-5{fill:#0e7139;}.cls-6{stroke:#fff;stroke-linecap:round;stroke-linejoin:round;stroke-width:2.93px;}.cls-6,.cls-7{fill:none;}.cls-7{clip-rule:evenodd;}.cls-8{fill:url(#Degradado_sin_nombre_3-3);}.cls-9{fill:url(#Degradado_sin_nombre_3-2);}.cls-10{clip-path:url(#clippath-1);}.cls-11{clip-path:url(#clippath-2);}.cls-5{fill-rule:evenodd;}.cls-12{fill:url(#Degradado_sin_nombre_3);}</style><clipPath id="clippath"><path class="cls-7" d="M604.45,17.35l-9.73-15.66h-13.71c-6.28,0-12.1,3.3-15.32,8.7l-9.08,14.79,32.22,20.56,15.62-28.39Z"/></clipPath><linearGradient id="Degradado_sin_nombre_3" x1="560.63" y1="23.96" x2="611.12" y2="23.33" gradientUnits="userSpaceOnUse"><stop offset="0" stop-color="#2a763b"/><stop offset="1" stop-color="#50b748"/></linearGradient><clipPath id="clippath-1"><path class="cls-7" d="M673.77,63.36l-35.15,20.56,14.65,26.43h23.43l6.12-9.91c3.4-5.52,3.56-12.45,.42-18.12l-9.47-18.96Z"/></clipPath><linearGradient id="Degradado_sin_nombre_3-2" x1="642.52" y1="87.08" x2="690.89" y2="86.54" xlink:href="#Degradado_sin_nombre_3"/><clipPath id="clippath-2"><path class="cls-7" d="M544.89,113.28l-7.13,16.48,8.91,15.48c3.31,5.61,9.29,9.08,15.79,9.15h11.72v-41.11h-29.29Z"/></clipPath><linearGradient id="Degradado_sin_nombre_3-3" x1="540.89" y1="134" x2="579.44" y2="133.6" xlink:href="#Degradado_sin_nombre_3"/></defs><path class="cls-2" d="M275.2,522.26c-6.36-6.36-15.14-10.29-24.85-10.29s-18.49,3.93-24.85,10.29c-6.36,6.36-10.29,15.14-10.29,24.85s3.93,18.49,10.29,24.85c6.36,6.36,15.14,10.29,24.85,10.29s18.49-3.93,24.85-10.29c6.36-6.36,10.29-15.14,10.29-24.85s-3.93-18.49-10.29-24.85m-24.85-30.2c15.2,0,28.97,6.16,38.93,16.13,9.96,9.96,16.13,23.73,16.13,38.93s-6.16,28.97-16.13,38.93c-9.96,9.96-23.73,16.13-38.93,16.13s-28.97-6.16-38.93-16.13c-9.96-9.96-16.13-23.73-16.13-38.93s6.16-28.97,16.13-38.93c9.96-9.96,23.73-16.13,38.93-16.13ZM174.91,143.72h116.23v-16.34H149.01v17.34c7.77-.52,16.06-.84,24.89-.95,.33-.03,.67-.05,1.02-.05Zm157.83,0c5.5,0,9.96,4.46,9.96,9.96s-4.46,9.96-9.96,9.96H174.91c-.25,0-.5,0-.75-.03-45.96,.58-75.27,6.86-93.21,17.03-11.89,6.74-18.47,15.38-21.59,25.26H316.26c5.5,0,9.96,4.46,9.96,9.96s-4.46,9.96-9.96,9.96h-76.88v160.9c0,5.5-4.46,9.96-9.96,9.96s-9.96-4.46-9.96-9.96V225.81h-48.89v164.62c0,5.5-4.46,9.96-9.96,9.96s-9.96-4.46-9.96-9.96V225.81H83.45l14.18,354.58h34.28l8.99-29.22c1.61-5.24,7.17-8.18,12.41-6.57,5.24,1.61,8.18,7.17,6.57,12.41l-10.93,35.53c-.99,4.45-4.97,7.77-9.72,7.77h-51.14v-.03c-5.3,0-9.71-4.19-9.92-9.54l-14.6-364.92h-16.21c-.27,0-.54-.02-.82-.04-5.48-.45-9.55-5.26-9.1-10.73,1.77-20.71,10.87-38.72,33.69-51.67,13.67-7.75,32.46-13.54,57.95-16.76v-29.19c0-5.5,4.46-9.96,9.96-9.96h162.05c5.5,0,9.96,4.46,9.96,9.96v26.3h21.69Z"/><path class="cls-3" d="M17.42,568.07c-9.62,0-17.42-7.8-17.42-17.42s7.8-17.42,17.42-17.42H234.5l60.92-287.77c1.04-4.93,2.33-11.45,3.63-18.05,13.02-65.97,27.65-140.05,114.99-135.76v-.03h53.75c9.62,0,17.42,7.8,17.42,17.42s-7.8,17.42-17.42,17.42h-53.75v-.04c-.32,0-.63,0-.95-.03-57.98-3.21-69.56,55.46-79.87,107.68-1.15,5.83-2.29,11.59-3.77,18.59l-63.63,300.55c-1.24,8.4-8.49,14.85-17.23,14.85H17.42Z"/><path class="cls-3" d="M591.87,275.66l22.73,177.16h-73.14l50.41-177.16Zm27.26,212.8l6.53,53.2h38.55l-44.88-361.56h-39.12l-103.1,361.56h38.55l15.58-53.2h87.88Zm-188.9-212.8l22.73,177.16h-73.14l50.41-177.16Zm27.26,212.8l6.53,53.2h38.55l-44.88-361.56h-39.12l-103.1,361.56h38.56l15.58-53.2h87.88Z"/><path class="cls-3" d="M853.54,239.36c-1.91,24.82-24.42,44.95-49.75,44.95h-57.72l12.03-155.94h57.72c25.33,0,44.73,20.14,42.85,44.49l-5.13,66.49Zm34.1,0l5.13-66.49c3.29-42.61-30.09-77.27-74.43-77.27h-91.82c-10.56,141.33-20.91,284.12-31.47,425.45-2.41,27.79,31.8,26.82,34.14-.93l14.39-203.49h57.72c44.34,0,83.06-34.65,86.35-77.27Z"/><path class="cls-6" d="M604.43,17.13l-9.73-15.66h-13.71c-6.28,0-12.1,3.3-15.32,8.7l-9.08,14.8,32.22,20.56,15.62-28.39Z"/><g class="cls-1"><rect class="cls-12" x="556.61" y="1.69" width="47.84" height="44.05"/></g><path class="cls-6" d="M655.73,29.7l-11.27-19.42c-2.87-5.44-8.51-8.83-14.65-8.81h-35.12l26.33,49.93-14.65,8.81,43.59,4.97,20.85-43.15-15.09,7.67Z"/><path class="cls-5" d="M655.75,29.92l-11.27-19.42c-2.87-5.44-8.51-8.83-14.65-8.81h-35.12l26.33,49.92-14.65,8.81,43.59,4.97,20.85-43.15-15.09,7.67Z"/><path class="cls-6" d="M673.75,63.14l-35.15,20.56,14.65,26.43h23.43l6.12-9.91c3.4-5.52,3.56-12.45,.41-18.12l-9.47-18.96Z"/><g class="cls-10"><rect class="cls-9" x="638.62" y="63.36" width="47.76" height="46.99"/></g><path class="cls-6" d="M618.1,110.14v-14.69l-29.29,32.31,29.29,38.18v-11.75h23.43c6.17,.15,11.87-3.28,14.64-8.81l20.5-35.24h-58.58Z"/><path class="cls-5" d="M618.12,110.35v-14.68l-29.29,32.31,29.29,38.18v-11.75h23.43c6.17,.15,11.87-3.28,14.64-8.81l20.5-35.24h-58.58Z"/><path class="cls-6" d="M544.87,113.07l-7.13,16.48,8.91,15.48c3.31,5.61,9.29,9.08,15.79,9.16h11.72v-41.12h-29.29Z"/><g class="cls-11"><rect class="cls-8" x="537.76" y="113.28" width="36.42" height="41.11"/></g><path class="cls-6" d="M580.02,86.64l-17.57-38.18-46.86,2.94,16.75,10.41-10.89,21.89c-3.03,5.48-3.03,12.14,0,17.62l16.3,28.23,6.1-10.61,21.77-37.89,14.42,5.58Z"/><path class="cls-5" d="M580.04,86.85l-17.57-38.18-46.86,2.94,16.75,10.41-10.89,21.89c-3.03,5.48-3.03,12.14,0,17.62l16.3,28.23,6.1-10.61,21.77-37.88,14.42,5.58Z"/><path class="cls-4" d="M834.4,577.99l-.13-12.24h-.1l-4.21,12.24h4.44Zm-2.45-21.8h8.16l3.39,35.02h-8.93l-.08-6.94h-6.71l-2.45,6.94h-8.42l15.04-35.02Zm-23.71,6.84h-2.12l-1.25,7.45h1.76c1.14,0,2.13-.34,2.99-1.03,.85-.68,1.39-1.68,1.61-2.98,.38-2.3-.61-3.44-2.99-3.44Zm-9.18-6.84h12.6c3,0,5.22,.76,6.67,2.26,1.45,1.51,1.96,3.58,1.51,6.22-.73,4.39-3.78,7.49-9.15,9.31l-.02,.1c1.4,.27,2.54,.84,3.41,1.7,.87,.86,1.36,2.3,1.47,4.32l.52,11.11h-8.94l.27-9.67c.06-1.78-.15-3.02-.62-3.7-.47-.69-1.22-1.03-2.25-1.03h-.73l-2.4,14.4h-8.21l5.85-35.02Zm-27.06,0h8.21l-3.88,23.19c-.62,3.7,.09,5.55,2.12,5.55,.83,0,1.55-.3,2.16-.9,.62-.6,1.05-1.24,1.3-1.93,.25-.68,.45-1.44,.59-2.26l3.95-23.65h8.21l-4.03,24.12c-.63,3.77-2.15,6.63-4.56,8.56-2.41,1.94-5.35,2.91-8.82,2.91-3.65,0-6.26-1-7.84-2.98-1.58-1.99-2.06-4.82-1.45-8.48l4.03-24.12Zm-19.87,19.46l-.78-.33c-4.14-2.23-5.87-5.35-5.2-9.36,.49-2.91,1.92-5.36,4.3-7.35,2.38-1.99,5.26-2.98,8.63-2.98,2.27,0,4.58,.62,6.92,1.85l-1.39,8.33c-1.88-2.12-3.82-3.19-5.82-3.19-1,0-1.93,.3-2.79,.91-.86,.61-1.36,1.34-1.5,2.2-.09,.56-.05,1.04,.11,1.48,.16,.43,.46,.83,.9,1.19,.43,.36,.82,.63,1.16,.81,.34,.18,.78,.41,1.32,.7,.78,.39,1.39,.72,1.85,.96,.45,.23,1.06,.66,1.83,1.27,.76,.62,1.34,1.24,1.74,1.9,.39,.64,.7,1.48,.93,2.52,.22,1.04,.23,2.19,.02,3.44-.55,3.26-2.18,6.03-4.91,8.33-2.73,2.3-5.78,3.45-9.15,3.45-2.62,0-5.31-.79-8.07-2.37l1.44-8.64c2.41,2.5,4.74,3.75,7.01,3.75,1.24,0,2.36-.39,3.37-1.18,1.01-.8,1.61-1.76,1.8-2.89,.17-1-.06-1.85-.68-2.55-.61-.7-1.63-1.46-3.05-2.24Zm-21,2.34l-.13-12.24h-.1l-4.21,12.24h4.44Zm-2.45-21.8h8.16l3.39,35.02h-8.93l-.08-6.94h-6.71l-2.45,6.94h-8.42l15.04-35.02Zm-25.9,19.95h-2.63l-1.37,8.23h2.63c1.28,0,2.41-.38,3.42-1.13,1-.75,1.61-1.77,1.82-3.03,.19-1.17-.07-2.13-.81-2.9-.73-.77-1.75-1.16-3.06-1.16Zm1.11-13.11h-1.55l-1.1,6.58h.88c1.2,0,2.22-.3,3.04-.9,.82-.6,1.33-1.48,1.53-2.65,.34-2.02-.59-3.03-2.8-3.03Zm-8.62-6.84h12.5c2.62,0,4.63,.74,6.03,2.21,1.41,1.47,1.9,3.46,1.48,5.96-.62,3.74-3.05,6.39-7.27,7.97l-.02,.1c.54,.07,1.04,.15,1.51,.26,.47,.1,1.11,.35,1.94,.75,.83,.39,1.51,.87,2.06,1.44,.54,.57,.96,1.4,1.26,2.49,.3,1.1,.33,2.35,.09,3.75-.54,3.26-2.11,5.75-4.71,7.48-2.6,1.73-5.73,2.6-9.42,2.6h-11.31l5.85-35.02Zm-37.44,0h20.04l-1.18,7.1h-11.83l-1.07,6.38h11.05l-1.14,6.84h-11.05l-1.27,7.61h11.83l-1.19,7.09h-20.04l5.85-35.02Zm-19.32,6.84h-1.08l-3.57,21.34c.72,0,1.36-.05,1.91-.16,.55-.1,1.2-.37,1.97-.8,.76-.43,1.41-1.03,1.95-1.8,.54-.77,1.09-1.9,1.65-3.39,.56-1.49,1.02-3.28,1.36-5.37,1.09-6.55-.3-9.82-4.19-9.82Zm-8.15-6.84h10.27c8.85,0,12.32,5.71,10.41,17.12-.24,1.44-.57,2.85-.99,4.24-.42,1.39-1.08,2.94-1.99,4.65-.91,1.71-1.96,3.2-3.15,4.47-1.19,1.27-2.77,2.34-4.75,3.21-1.97,.87-4.14,1.31-6.52,1.31h-9.14l5.85-35.02Zm-30.49,21.8l-.12-12.24h-.1l-4.21,12.24h4.44Zm-2.45-21.8h8.16l3.39,35.02h-8.93l-.08-6.94h-6.71l-2.45,6.94h-8.42l15.04-35.02Zm-23.71,6.84h-2.12l-1.25,7.45h1.76c1.14,0,2.13-.34,2.99-1.03,.85-.68,1.39-1.68,1.61-2.98,.38-2.3-.61-3.44-2.99-3.44Zm-9.19-6.84h12.6c3,0,5.22,.76,6.67,2.26,1.45,1.51,1.96,3.58,1.52,6.22-.73,4.39-3.78,7.49-9.15,9.31v.1c1.38,.27,2.52,.84,3.39,1.7,.87,.86,1.36,2.3,1.47,4.32l.52,11.11h-8.93l.27-9.67c.06-1.78-.15-3.02-.62-3.7-.47-.69-1.22-1.03-2.25-1.03h-.72l-2.41,14.4h-8.21l5.85-35.02Zm-17.4,6.79c-1.31,0-2.47,.61-3.48,1.83-1.01,1.22-1.76,2.55-2.25,4.01-.48,1.46-.87,3.04-1.15,4.75-.55,3.29-.56,5.9-.02,7.82,.54,1.92,1.55,2.88,3.03,2.88s2.92-1,4.12-3.01c1.2-2,2.06-4.58,2.58-7.74,.56-3.36,.55-5.96-.04-7.79-.59-1.83-1.52-2.75-2.79-2.75Zm.35-7.35c2.17,0,4.03,.41,5.58,1.23,1.55,.82,2.7,1.86,3.46,3.11,.76,1.25,1.3,2.72,1.64,4.39,.34,1.68,.49,3.25,.45,4.71-.03,1.46-.18,2.94-.43,4.45-.89,5.35-2.81,9.72-5.76,13.14-2.95,3.41-6.47,5.12-10.57,5.12-2.75,0-4.99-.86-6.69-2.57-1.71-1.71-2.8-3.9-3.27-6.56-.47-2.66-.43-5.61,.12-8.87,.92-5.48,2.85-9.88,5.79-13.19,2.95-3.31,6.17-4.96,9.69-4.96Zm-35.88,.56h22.46l-1.19,7.1h-7.13l-4.67,27.92h-8.21l4.66-27.92h-7.13l1.19-7.1Zm-3.74,.72l-1.33,7.97c-1.16-1.27-2.49-1.9-3.97-1.9-.97,0-1.86,.23-2.7,.69-.83,.46-1.53,1.1-2.08,1.93-.55,.82-1.03,1.63-1.44,2.42-.41,.79-.75,1.68-1.02,2.67-.27,.99-.45,1.7-.53,2.11-.08,.41-.16,.84-.24,1.29-.51,3.05-.38,5.51,.39,7.38,.77,1.87,2.09,2.8,3.95,2.8,1.34,0,2.91-.62,4.7-1.85l-1.32,7.92c-2.36,.96-4.37,1.44-6.02,1.44-3.92,0-6.78-1.71-8.57-5.12-1.79-3.41-2.25-7.69-1.39-12.83,.87-5.21,2.81-9.55,5.81-13.01,3.01-3.46,6.54-5.19,10.6-5.19,1.62,0,3.34,.43,5.15,1.29Zm-41.4-.72h20.04l-1.19,7.1h-11.82l-1.07,6.38h11.05l-1.14,6.84h-11.05l-1.27,7.61h11.83l-1.18,7.09h-20.04l5.85-35.02Zm-21.43,0h8.21l-4.66,27.87h11.31l-1.19,7.15h-19.52l5.85-35.02Zm-17.5,6.79c-1.31,0-2.47,.61-3.48,1.83-1.01,1.22-1.76,2.55-2.24,4.01-.48,1.46-.87,3.04-1.16,4.75-.55,3.29-.56,5.9-.02,7.82,.54,1.92,1.55,2.88,3.03,2.88,1.55,0,2.92-1,4.12-3.01,1.2-2,2.06-4.58,2.58-7.74,.56-3.36,.55-5.96-.04-7.79-.59-1.83-1.52-2.75-2.79-2.75Zm.35-7.35c2.17,0,4.03,.41,5.58,1.23,1.55,.82,2.7,1.86,3.46,3.11,.76,1.25,1.3,2.72,1.64,4.39,.34,1.68,.49,3.25,.45,4.71-.04,1.46-.18,2.94-.43,4.45-.89,5.35-2.81,9.72-5.76,13.14-2.95,3.41-6.47,5.12-10.57,5.12-2.75,0-4.99-.86-6.7-2.57-1.71-1.71-2.8-3.9-3.27-6.56-.47-2.66-.43-5.61,.11-8.87,.92-5.48,2.85-9.88,5.79-13.19,2.94-3.31,6.17-4.96,9.69-4.96Zm-16.33,1.29l-1.33,7.97c-1.17-1.27-2.49-1.9-3.97-1.9-.96,0-1.86,.23-2.7,.69-.84,.46-1.53,1.1-2.08,1.93-.55,.82-1.03,1.63-1.44,2.42-.41,.79-.75,1.68-1.02,2.67-.27,.99-.45,1.7-.53,2.11-.08,.41-.17,.84-.24,1.29-.51,3.05-.38,5.51,.39,7.38,.77,1.87,2.09,2.8,3.95,2.8,1.34,0,2.91-.62,4.7-1.85l-1.32,7.92c-2.36,.96-4.37,1.44-6.02,1.44-3.92,0-6.78-1.71-8.57-5.12-1.79-3.41-2.25-7.69-1.39-12.83,.87-5.21,2.81-9.55,5.81-13.01,3.01-3.46,6.54-5.19,10.6-5.19,1.62,0,3.34,.43,5.16,1.29Zm-41.4-.72h20.04l-1.19,7.1h-11.83l-1.07,6.38h11.05l-1.14,6.84h-11.05l-1.27,7.61h11.83l-1.18,7.09h-20.04l5.85-35.02Zm-16.63,6.84h-2.12l-1.25,7.45h1.75c1.14,0,2.13-.34,2.99-1.03,.85-.68,1.39-1.68,1.61-2.98,.38-2.3-.61-3.44-2.99-3.44Zm-9.19-6.84h12.6c3,0,5.22,.76,6.67,2.26,1.45,1.51,1.96,3.58,1.52,6.22-.73,4.39-3.78,7.49-9.15,9.31l-.02,.1c1.4,.27,2.54,.84,3.41,1.7,.87,.86,1.37,2.3,1.47,4.32l.52,11.11h-8.93l.27-9.67c.06-1.78-.15-3.02-.62-3.7-.47-.69-1.23-1.03-2.26-1.03h-.72l-2.41,14.4h-8.21l5.85-35.02Z"/></svg>