<?xml version="1.0" encoding="utf-8"?>
<!-- Generator: Adobe Illustrator 26.5.2, SVG Export Plug-In . SVG Version: 6.00 Build 0)  -->
<svg version="1.1" id="Capa_1" xmlns="http://www.w3.org/2000/svg" xmlns:xlink="http://www.w3.org/1999/xlink" x="0px" y="0px"
	 viewBox="0 0 893 602.2" style="enable-background:new 0 0 893 602.2;" xml:space="preserve">
<style type="text/css">
	.st0{fill:#FFCA05;}
	.st1{fill:#127139;}
	.st2{fill:none;stroke:#FFFFFF;stroke-width:2.93;stroke-linecap:round;stroke-linejoin:round;}
	.st3{clip-path:url(#SVGID_00000172434434113479845590000004067932763169307570_);}
	.st4{fill:url(#SVGID_00000052087268156672186090000009422189846669116037_);}
	.st5{fill-rule:evenodd;clip-rule:evenodd;fill:#0E7139;}
	.st6{clip-path:url(#SVGID_00000036216064827194475000000005093170508339250351_);}
	.st7{fill:url(#SVGID_00000145049350333995536150000005362434840130889612_);}
	.st8{clip-path:url(#SVGID_00000029726383228289553210000001200011265745768584_);}
	.st9{fill:url(#SVGID_00000116948520383975995300000017215285581898389680_);}
	.st10{fill:#0E7139;}
</style>
<g>
	<path class="st0" d="M275.2,522.3c-6.4-6.4-15.1-10.3-24.9-10.3s-18.5,3.9-24.9,10.3s-10.3,15.1-10.3,24.8s3.9,18.5,10.3,24.8
		s15.1,10.3,24.9,10.3c9.7,0,18.5-3.9,24.9-10.3c6.4-6.4,10.3-15.1,10.3-24.8S281.6,528.6,275.2,522.3 M250.4,492.1
		c15.2,0,29,6.2,38.9,16.1c10,10,16.1,23.7,16.1,38.9s-6.2,29-16.1,38.9c-10,10-23.7,16.1-38.9,16.1s-29-6.2-38.9-16.1
		c-10-10-16.1-23.7-16.1-38.9s6.2-29,16.1-38.9C221.4,498.2,235.2,492.1,250.4,492.1z M174.9,143.7h116.2v-16.3H149v17.3
		c7.8-0.5,16.1-0.8,24.9-0.9C174.2,143.7,174.6,143.7,174.9,143.7L174.9,143.7z M332.7,143.7c5.5,0,10,4.5,10,10s-4.5,10-10,10
		H174.9c-0.2,0-0.5,0-0.8,0c-46,0.6-75.3,6.9-93.2,17c-11.9,6.7-18.5,15.4-21.6,25.3h256.9c5.5,0,10,4.5,10,10s-4.5,10-10,10h-76.9
		v160.9c0,5.5-4.5,10-10,10s-10-4.5-10-10V225.8h-48.9v164.6c0,5.5-4.5,10-10,10s-10-4.5-10-10V225.8H83.4l14.2,354.6h34.3l9-29.2
		c1.6-5.2,7.2-8.2,12.4-6.6s8.2,7.2,6.6,12.4L149,592.5c-1,4.5-5,7.8-9.7,7.8H88.1v0c-5.3,0-9.7-4.2-9.9-9.5L63.6,225.8H47.4
		c-0.3,0-0.5,0-0.8,0c-5.5-0.4-9.5-5.3-9.1-10.7c1.8-20.7,10.9-38.7,33.7-51.7c13.7-7.8,32.5-13.5,57.9-16.8v-29.2
		c0-5.5,4.5-10,10-10h162.1c5.5,0,10,4.5,10,10v26.3L332.7,143.7L332.7,143.7z"/>
	<path class="st1" d="M17.4,568.1c-9.6,0-17.4-7.8-17.4-17.4s7.8-17.4,17.4-17.4h217.1l60.9-287.8c1-4.9,2.3-11.4,3.6-18.1
		c13-66,27.6-140.1,115-135.8v0h53.8c9.6,0,17.4,7.8,17.4,17.4s-7.8,17.4-17.4,17.4H414v0c-0.3,0-0.6,0-1,0
		c-58-3.2-69.6,55.5-79.9,107.7c-1.1,5.8-2.3,11.6-3.8,18.6l-63.6,300.5c-1.2,8.4-8.5,14.8-17.2,14.8L17.4,568.1L17.4,568.1z"/>
	<path class="st1" d="M330.7,127c-7.7-0.8-14.7-2-21.7-2.2c-21-0.5-42-0.3-63-0.8c-9.3-0.3-15.2-6.5-15.5-14.7
		c-0.3-8.9,6.1-17.1,14.6-18.5c1.9-0.3,3.9-0.2,5.9-0.2c71.6,0,143.3,0,214.9-0.1c8.4,0,15.8,2.2,18.3,10.2
		c1.5,4.9,0.8,12.4-2.1,16.2c-3,3.9-9.8,6.4-15.2,6.7c-15.1,0.9-30.3,1.1-45.3,0.2c-43.8-2.7-63.9,18.4-74.7,55.4
		c-9.8,33.6-16.2,68.3-23.6,102.6c-15,69.9-29.7,140-44.6,210c-4.2,19.9-8.4,39.7-12.7,59.6c-2.8,12.7-7.4,16.3-20.4,16.5
		c-33.4,0.5-66.9,1.4-100.3,1.4c-42.3-0.1-84.6-0.8-126.9-1.4c-11.1-0.2-18.2-6.8-18.3-16.3c-0.1-10.2,7-16.9,18.8-16.9
		c55.5-0.1,110.9-0.1,166.4-0.1c13.4,0,26.8-0.3,40.2,0.2c7.1,0.2,10.4-1.8,12-9.3c14-67.4,28.4-134.8,42.7-202.1
		c5.8-27.3,11.4-54.6,17.4-81.9c5.7-25.9,11.2-51.9,18-77.5C318.8,151.9,324.9,140.9,330.7,127z"/>
	<path class="st1" d="M591.9,275.7l22.7,177.2h-73.1L591.9,275.7L591.9,275.7z M619.1,488.5l6.5,53.2h38.5l-44.9-361.6h-39.1
		L477.1,541.7h38.6l15.6-53.2H619.1L619.1,488.5z M430.2,275.7L453,452.8h-73.1L430.2,275.7z M457.5,488.5l6.5,53.2h38.5
		l-44.9-361.6h-39.1L315.5,541.7H354l15.6-53.2H457.5L457.5,488.5z"/>
	<path class="st1" d="M853.5,239.4c-1.9,24.8-24.4,44.9-49.8,44.9h-57.7l12-155.9h57.7c25.3,0,44.7,20.1,42.8,44.5L853.5,239.4
		L853.5,239.4z M887.6,239.4l5.1-66.5c3.3-42.6-30.1-77.3-74.4-77.3h-91.8C716,236.9,705.6,379.7,695,521
		c-2.4,27.8,31.8,26.8,34.1-0.9l14.4-203.5h57.7C845.6,316.6,884.4,282,887.6,239.4L887.6,239.4z"/>
	<path class="st2" d="M604.4,17.1l-9.7-15.7H581c-6.3,0-12.1,3.3-15.3,8.7L556.6,25l32.2,20.6L604.4,17.1L604.4,17.1z"/>
	<g>
		<defs>
			<path id="SVGID_1_" d="M604.5,17.4l-9.7-15.7H581c-6.3,0-12.1,3.3-15.3,8.7l-9.1,14.8l32.2,20.6L604.5,17.4L604.5,17.4z"/>
		</defs>
		<clipPath id="SVGID_00000161619218962307119770000015313847359359910325_">
			<use xlink:href="#SVGID_1_"  style="overflow:visible;"/>
		</clipPath>
		<g style="clip-path:url(#SVGID_00000161619218962307119770000015313847359359910325_);">
			
				<linearGradient id="SVGID_00000098917286936044551320000010710285466761982375_" gradientUnits="userSpaceOnUse" x1="560.6301" y1="580.0367" x2="611.1201" y2="580.6667" gradientTransform="matrix(1 0 0 -1 0 604)">
				<stop  offset="0" style="stop-color:#2A763B"/>
				<stop  offset="1" style="stop-color:#50B748"/>
			</linearGradient>
			
				<rect x="556.6" y="1.7" style="fill:url(#SVGID_00000098917286936044551320000010710285466761982375_);" width="47.8" height="44"/>
		</g>
	</g>
	<path class="st2" d="M655.7,29.7l-11.3-19.4c-2.9-5.4-8.5-8.8-14.7-8.8h-35.1L621,51.4l-14.7,8.8l43.6,5L670.8,22L655.7,29.7
		L655.7,29.7z"/>
	<path class="st5" d="M655.8,29.9l-11.3-19.4c-2.9-5.4-8.5-8.8-14.7-8.8h-35.1L621,51.6l-14.7,8.8l43.6,5l20.8-43.2L655.8,29.9
		L655.8,29.9z"/>
	<path class="st2" d="M673.8,63.1l-35.2,20.6l14.7,26.4h23.4l6.1-9.9c3.4-5.5,3.6-12.4,0.4-18.1L673.8,63.1L673.8,63.1z"/>
	<g>
		<defs>
			<path id="SVGID_00000086678003831858389740000014318235665946248124_" d="M673.8,63.4l-35.2,20.6l14.7,26.4h23.4l6.1-9.9
				c3.4-5.5,3.6-12.4,0.4-18.1L673.8,63.4z"/>
		</defs>
		<clipPath id="SVGID_00000181058586834169130640000009647234193079154599_">
			<use xlink:href="#SVGID_00000086678003831858389740000014318235665946248124_"  style="overflow:visible;"/>
		</clipPath>
		<g style="clip-path:url(#SVGID_00000181058586834169130640000009647234193079154599_);">
			
				<linearGradient id="SVGID_00000054985564859153056910000012438966244179090313_" gradientUnits="userSpaceOnUse" x1="642.52" y1="516.9219" x2="690.89" y2="517.4619" gradientTransform="matrix(1 0 0 -1 0 604)">
				<stop  offset="0" style="stop-color:#2A763B"/>
				<stop  offset="1" style="stop-color:#50B748"/>
			</linearGradient>
			
				<rect x="638.6" y="63.4" style="fill:url(#SVGID_00000054985564859153056910000012438966244179090313_);" width="47.8" height="47"/>
		</g>
	</g>
	<path class="st2" d="M618.1,110.1V95.4l-29.3,32.3l29.3,38.2v-11.8h23.4c6.2,0.1,11.9-3.3,14.6-8.8l20.5-35.2H618.1L618.1,110.1z"
		/>
	<path class="st5" d="M618.1,110.3V95.7L588.8,128l29.3,38.2v-11.8h23.4c6.2,0.1,11.9-3.3,14.6-8.8l20.5-35.2L618.1,110.3
		L618.1,110.3z"/>
	<path class="st2" d="M544.9,113.1l-7.1,16.5l8.9,15.5c3.3,5.6,9.3,9.1,15.8,9.2h11.7v-41.1L544.9,113.1L544.9,113.1z"/>
	<g>
		<defs>
			<path id="SVGID_00000072961843883991209970000012325963548512573864_" d="M544.9,113.3l-7.1,16.5l8.9,15.5
				c3.3,5.6,9.3,9.1,15.8,9.1h11.7v-41.1L544.9,113.3L544.9,113.3z"/>
		</defs>
		<clipPath id="SVGID_00000103234541695701188570000013540092898417585310_">
			<use xlink:href="#SVGID_00000072961843883991209970000012325963548512573864_"  style="overflow:visible;"/>
		</clipPath>
		<g style="clip-path:url(#SVGID_00000103234541695701188570000013540092898417585310_);">
			
				<linearGradient id="SVGID_00000016757963281104400550000006492559534846663862_" gradientUnits="userSpaceOnUse" x1="540.89" y1="470.0085" x2="579.4399" y2="470.4085" gradientTransform="matrix(1 0 0 -1 0 604)">
				<stop  offset="0" style="stop-color:#2A763B"/>
				<stop  offset="1" style="stop-color:#50B748"/>
			</linearGradient>
			
				<rect x="537.8" y="113.3" style="fill:url(#SVGID_00000016757963281104400550000006492559534846663862_);" width="36.4" height="41.1"/>
		</g>
	</g>
	<path class="st2" d="M580,86.6l-17.6-38.2l-46.9,2.9l16.8,10.4l-10.9,21.9c-3,5.5-3,12.1,0,17.6l16.3,28.2l6.1-10.6l21.8-37.9
		L580,86.6L580,86.6z"/>
	<path class="st5" d="M580,86.8l-17.6-38.2l-46.9,2.9L532.4,62l-10.9,21.9c-3,5.5-3,12.1,0,17.6l16.3,28.2l6.1-10.6l21.8-37.9
		L580,86.8L580,86.8z"/>
	<path class="st10" d="M834.4,578l-0.1-12.2h-0.1L830,578H834.4z M832,556.2h8.2l3.4,35h-8.9l-0.1-6.9h-6.7l-2.5,6.9h-8.4L832,556.2
		L832,556.2z M808.2,563h-2.1l-1.2,7.5h1.8c1.1,0,2.1-0.3,3-1c0.8-0.7,1.4-1.7,1.6-3C811.6,564.2,810.6,563,808.2,563z M799.1,556.2
		h12.6c3,0,5.2,0.8,6.7,2.3c1.5,1.5,2,3.6,1.5,6.2c-0.7,4.4-3.8,7.5-9.2,9.3l0,0.1c1.4,0.3,2.5,0.8,3.4,1.7s1.4,2.3,1.5,4.3
		l0.5,11.1h-8.9l0.3-9.7c0.1-1.8-0.2-3-0.6-3.7c-0.5-0.7-1.2-1-2.2-1h-0.7l-2.4,14.4h-8.2L799.1,556.2L799.1,556.2z M772,556.2h8.2
		l-3.9,23.2c-0.6,3.7,0.1,5.5,2.1,5.5c0.8,0,1.5-0.3,2.2-0.9c0.6-0.6,1-1.2,1.3-1.9c0.2-0.7,0.5-1.4,0.6-2.3l4-23.7h8.2l-4,24.1
		c-0.6,3.8-2.2,6.6-4.6,8.6c-2.4,1.9-5.3,2.9-8.8,2.9c-3.7,0-6.3-1-7.8-3c-1.6-2-2.1-4.8-1.5-8.5L772,556.2L772,556.2z M752.1,575.7
		l-0.8-0.3c-4.1-2.2-5.9-5.3-5.2-9.4c0.5-2.9,1.9-5.4,4.3-7.3s5.3-3,8.6-3c2.3,0,4.6,0.6,6.9,1.8l-1.4,8.3c-1.9-2.1-3.8-3.2-5.8-3.2
		c-1,0-1.9,0.3-2.8,0.9s-1.4,1.3-1.5,2.2c-0.1,0.6,0,1,0.1,1.5c0.2,0.4,0.5,0.8,0.9,1.2c0.4,0.4,0.8,0.6,1.2,0.8
		c0.3,0.2,0.8,0.4,1.3,0.7c0.8,0.4,1.4,0.7,1.8,1c0.5,0.2,1.1,0.7,1.8,1.3c0.8,0.6,1.3,1.2,1.7,1.9c0.4,0.6,0.7,1.5,0.9,2.5
		c0.2,1,0.2,2.2,0,3.4c-0.5,3.3-2.2,6-4.9,8.3s-5.8,3.5-9.2,3.5c-2.6,0-5.3-0.8-8.1-2.4l1.4-8.6c2.4,2.5,4.7,3.8,7,3.8
		c1.2,0,2.4-0.4,3.4-1.2c1-0.8,1.6-1.8,1.8-2.9c0.2-1-0.1-1.8-0.7-2.5C754.6,577.2,753.5,576.4,752.1,575.7L752.1,575.7z M731.1,578
		l-0.1-12.2h-0.1l-4.2,12.2H731.1z M728.7,556.2h8.2l3.4,35h-8.9l-0.1-6.9h-6.7l-2.5,6.9h-8.4L728.7,556.2L728.7,556.2z
		 M702.8,576.1h-2.6l-1.4,8.2h2.6c1.3,0,2.4-0.4,3.4-1.1c1-0.8,1.6-1.8,1.8-3c0.2-1.2-0.1-2.1-0.8-2.9
		C705.1,576.5,704.1,576.2,702.8,576.1L702.8,576.1z M703.9,563h-1.5l-1.1,6.6h0.9c1.2,0,2.2-0.3,3-0.9c0.8-0.6,1.3-1.5,1.5-2.7
		C707,564,706.1,563,703.9,563L703.9,563z M695.3,556.2h12.5c2.6,0,4.6,0.7,6,2.2c1.4,1.5,1.9,3.5,1.5,6c-0.6,3.7-3,6.4-7.3,8l0,0.1
		c0.5,0.1,1,0.2,1.5,0.3c0.5,0.1,1.1,0.3,1.9,0.8c0.8,0.4,1.5,0.9,2.1,1.4c0.5,0.6,1,1.4,1.3,2.5c0.3,1.1,0.3,2.3,0.1,3.8
		c-0.5,3.3-2.1,5.8-4.7,7.5c-2.6,1.7-5.7,2.6-9.4,2.6h-11.3L695.3,556.2L695.3,556.2z M657.8,556.2h20l-1.2,7.1h-11.8l-1.1,6.4h11
		l-1.1,6.8h-11l-1.3,7.6h11.8l-1.2,7.1h-20L657.8,556.2L657.8,556.2z M638.5,563h-1.1l-3.6,21.3c0.7,0,1.4,0,1.9-0.2
		c0.5-0.1,1.2-0.4,2-0.8c0.8-0.4,1.4-1,2-1.8c0.5-0.8,1.1-1.9,1.7-3.4s1-3.3,1.4-5.4C643.8,566.3,642.4,563,638.5,563L638.5,563z
		 M630.4,556.2h10.3c8.8,0,12.3,5.7,10.4,17.1c-0.2,1.4-0.6,2.8-1,4.2s-1.1,2.9-2,4.7s-2,3.2-3.2,4.5c-1.2,1.3-2.8,2.3-4.8,3.2
		c-2,0.9-4.1,1.3-6.5,1.3h-9.1L630.4,556.2L630.4,556.2z M599.9,578l-0.1-12.2h-0.1l-4.2,12.2H599.9L599.9,578z M597.4,556.2h8.2
		l3.4,35H600l-0.1-6.9h-6.7l-2.5,6.9h-8.4L597.4,556.2L597.4,556.2z M573.7,563h-2.1l-1.2,7.5h1.8c1.1,0,2.1-0.3,3-1
		c0.8-0.7,1.4-1.7,1.6-3C577.1,564.2,576.1,563,573.7,563z M564.5,556.2h12.6c3,0,5.2,0.8,6.7,2.3c1.5,1.5,2,3.6,1.5,6.2
		c-0.7,4.4-3.8,7.5-9.2,9.3v0.1c1.4,0.3,2.5,0.8,3.4,1.7s1.4,2.3,1.5,4.3l0.5,11.1h-8.9l0.3-9.7c0.1-1.8-0.2-3-0.6-3.7
		c-0.5-0.7-1.2-1-2.2-1h-0.7l-2.4,14.4h-8.2L564.5,556.2L564.5,556.2z M547.1,563c-1.3,0-2.5,0.6-3.5,1.8c-1,1.2-1.8,2.5-2.2,4
		c-0.5,1.5-0.9,3-1.2,4.8c-0.5,3.3-0.6,5.9,0,7.8s1.5,2.9,3,2.9s2.9-1,4.1-3c1.2-2,2.1-4.6,2.6-7.7c0.6-3.4,0.5-6,0-7.8
		C549.3,563.9,548.4,563,547.1,563L547.1,563z M547.5,555.6c2.2,0,4,0.4,5.6,1.2s2.7,1.9,3.5,3.1s1.3,2.7,1.6,4.4
		c0.3,1.7,0.5,3.2,0.5,4.7c0,1.5-0.2,2.9-0.4,4.5c-0.9,5.3-2.8,9.7-5.8,13.1c-3,3.4-6.5,5.1-10.6,5.1c-2.8,0-5-0.9-6.7-2.6
		c-1.7-1.7-2.8-3.9-3.3-6.6c-0.5-2.7-0.4-5.6,0.1-8.9c0.9-5.5,2.8-9.9,5.8-13.2C540.7,557.3,544,555.6,547.5,555.6L547.5,555.6z
		 M511.6,556.2H534l-1.2,7.1h-7.1l-4.7,27.9h-8.2l4.7-27.9h-7.1L511.6,556.2L511.6,556.2z M507.8,556.9l-1.3,8
		c-1.2-1.3-2.5-1.9-4-1.9c-1,0-1.9,0.2-2.7,0.7c-0.8,0.5-1.5,1.1-2.1,1.9c-0.5,0.8-1,1.6-1.4,2.4s-0.8,1.7-1,2.7s-0.5,1.7-0.5,2.1
		s-0.2,0.8-0.2,1.3c-0.5,3-0.4,5.5,0.4,7.4c0.8,1.9,2.1,2.8,4,2.8c1.3,0,2.9-0.6,4.7-1.8l-1.3,7.9c-2.4,1-4.4,1.4-6,1.4
		c-3.9,0-6.8-1.7-8.6-5.1s-2.2-7.7-1.4-12.8c0.9-5.2,2.8-9.5,5.8-13c3-3.5,6.5-5.2,10.6-5.2C504.3,555.6,506,556.1,507.8,556.9
		L507.8,556.9z M466.4,556.2h20l-1.2,7.1h-11.8l-1.1,6.4h11l-1.1,6.8h-11l-1.3,7.6h11.8l-1.2,7.1h-20L466.4,556.2L466.4,556.2z
		 M445,556.2h8.2l-4.7,27.9h11.3l-1.2,7.2h-19.5L445,556.2z M427.5,563c-1.3,0-2.5,0.6-3.5,1.8c-1,1.2-1.8,2.5-2.2,4
		c-0.5,1.5-0.9,3-1.2,4.8c-0.5,3.3-0.6,5.9,0,7.8s1.5,2.9,3,2.9c1.5,0,2.9-1,4.1-3c1.2-2,2.1-4.6,2.6-7.7c0.6-3.4,0.5-6,0-7.8
		C429.7,563.9,428.8,563,427.5,563L427.5,563z M427.9,555.6c2.2,0,4,0.4,5.6,1.2s2.7,1.9,3.5,3.1c0.8,1.2,1.3,2.7,1.6,4.4
		c0.3,1.7,0.5,3.2,0.5,4.7c0,1.5-0.2,2.9-0.4,4.5c-0.9,5.3-2.8,9.7-5.8,13.1c-3,3.4-6.5,5.1-10.6,5.1c-2.8,0-5-0.9-6.7-2.6
		c-1.7-1.7-2.8-3.9-3.3-6.6s-0.4-5.6,0.1-8.9c0.9-5.5,2.9-9.9,5.8-13.2S424.3,555.6,427.9,555.6L427.9,555.6z M411.5,556.9l-1.3,8
		c-1.2-1.3-2.5-1.9-4-1.9c-1,0-1.9,0.2-2.7,0.7c-0.8,0.5-1.5,1.1-2.1,1.9c-0.5,0.8-1,1.6-1.4,2.4s-0.8,1.7-1,2.7s-0.5,1.7-0.5,2.1
		s-0.2,0.8-0.2,1.3c-0.5,3-0.4,5.5,0.4,7.4c0.8,1.9,2.1,2.8,4,2.8c1.3,0,2.9-0.6,4.7-1.8l-1.3,7.9c-2.4,1-4.4,1.4-6,1.4
		c-3.9,0-6.8-1.7-8.6-5.1s-2.2-7.7-1.4-12.8c0.9-5.2,2.8-9.5,5.8-13c3-3.5,6.5-5.2,10.6-5.2C408,555.6,409.7,556.1,411.5,556.9
		L411.5,556.9z M370.1,556.2h20l-1.2,7.1h-11.8l-1.1,6.4h11l-1.1,6.8h-11l-1.3,7.6h11.8l-1.2,7.1h-20L370.1,556.2z M353.5,563h-2.1
		l-1.2,7.5h1.8c1.1,0,2.1-0.3,3-1c0.9-0.7,1.4-1.7,1.6-3C356.9,564.2,355.9,563,353.5,563L353.5,563z M344.3,556.2h12.6
		c3,0,5.2,0.8,6.7,2.3c1.5,1.5,2,3.6,1.5,6.2c-0.7,4.4-3.8,7.5-9.1,9.3l0,0.1c1.4,0.3,2.5,0.8,3.4,1.7s1.4,2.3,1.5,4.3l0.5,11.1
		h-8.9l0.3-9.7c0.1-1.8-0.1-3-0.6-3.7c-0.5-0.7-1.2-1-2.3-1h-0.7l-2.4,14.4h-8.2L344.3,556.2L344.3,556.2z"/>
</g>
</svg>
